# xmcd
#
# Track frame offsets:
#	150
#	15602
#	33407
#	50509
#	65523
#	84663
#	100310
#	116648
#	129751
#	145021
#	160814
#	173674
#	188974
#	204335
#	219438
#	234157
#
# Disc length: 3339 seconds
#
# Revision: 0
# Processed by: cddbd v1.5.2PL0 Copyright (c) Steve Scherf et al.
# Submitted via: audiograbber 1.83.01
#
DISCID=d00d0910
DTITLE=Various Artist - All The Hits 2015 (2015)
DYEAR=2015
DGENRE=Pop
TTITLE0=Katy Perry - This Is How We Do
TTITLE1=Ariana Grande and The Weeknd - Love Me Harder
TTITLE2=Avicii - The Days (Radio Edit)
TTITLE3=Iggy Azalea feat Charli XCX - Fancy
TTITLE4=Will.I.Am and Cody Wise - It's My Birthday
TTITLE5=5 Seconds Of Summer - Good Girls
TTITLE6=The Madden Brothers - We Are Done
TTITLE7=Sam Smith - Stay With Me
TTITLE8=Vance Joy - Riptide
TTITLE9=Peking Duk feat Safia - Take Me Over
TTITLE10=Timmy Trumpet and Savage - Freaks (Radio Edit)
TTITLE11=Tiësto - Red Lights
TTITLE12=Milky Chance - Stolen Dance
TTITLE13=Klingande - Jubel (Radio Edit)
TTITLE14=American Authors - Best Day of My Life
TTITLE15=Hilltop Hoods - Cosby Sweater (Clean Version)
EXTD=
EXTT0=
EXTT1=
EXTT2=
EXTT3=
EXTT4=
EXTT5=
EXTT6=
EXTT7=
EXTT8=
EXTT9=
EXTT10=
EXTT11=
EXTT12=
EXTT13=
EXTT14=
EXTT15=
PLAYORDER=
